<mxfile host="app.diagrams.net" agent="Mozilla/5.0 (Windows NT 10.0; Win64; x64) AppleWebKit/537.36 (KHTML, like Gecko) Chrome/133.0.0.0 Safari/537.36 Edg/133.0.0.0" version="26.0.16">
  <diagram name="Страница — 1" id="0TaUu-dbuLNBRcR91b4y">
    <mxGraphModel grid="1" page="1" gridSize="10" guides="1" tooltips="1" connect="1" arrows="1" fold="1" pageScale="1" pageWidth="827" pageHeight="1169" math="0" shadow="0">
      <root>
        <mxCell id="0" />
        <mxCell id="1" parent="0" />
        <mxCell id="eGPt4R98PZ8NtImoCrRv-24" style="edgeStyle=orthogonalEdgeStyle;rounded=0;orthogonalLoop=1;jettySize=auto;html=1;strokeColor=#666666;strokeWidth=2;" edge="1" parent="1" source="eGPt4R98PZ8NtImoCrRv-39" target="eGPt4R98PZ8NtImoCrRv-17">
          <mxGeometry relative="1" as="geometry">
            <mxPoint x="400" y="210.0344827586207" as="sourcePoint" />
            <Array as="points">
              <mxPoint x="290" y="210" />
              <mxPoint x="290" y="210" />
            </Array>
          </mxGeometry>
        </mxCell>
        <mxCell id="eGPt4R98PZ8NtImoCrRv-37" style="edgeStyle=orthogonalEdgeStyle;rounded=0;orthogonalLoop=1;jettySize=auto;html=1;fontColor=#666666;strokeColor=#666666;strokeWidth=2;" edge="1" parent="1" source="eGPt4R98PZ8NtImoCrRv-39" target="eGPt4R98PZ8NtImoCrRv-29">
          <mxGeometry relative="1" as="geometry">
            <mxPoint x="447.9999999999998" y="170.0344827586207" as="sourcePoint" />
            <Array as="points">
              <mxPoint x="560" y="170" />
              <mxPoint x="560" y="170" />
            </Array>
          </mxGeometry>
        </mxCell>
        <mxCell id="eGPt4R98PZ8NtImoCrRv-23" style="edgeStyle=orthogonalEdgeStyle;rounded=0;orthogonalLoop=1;jettySize=auto;html=1;strokeColor=#666666;strokeWidth=2;" edge="1" parent="1" source="eGPt4R98PZ8NtImoCrRv-17" target="eGPt4R98PZ8NtImoCrRv-39">
          <mxGeometry relative="1" as="geometry">
            <mxPoint x="400" y="170.0344827586207" as="targetPoint" />
            <Array as="points">
              <mxPoint x="280" y="170" />
              <mxPoint x="280" y="170" />
            </Array>
          </mxGeometry>
        </mxCell>
        <mxCell id="eGPt4R98PZ8NtImoCrRv-17" value="&lt;font face=&quot;Times New Roman&quot; style=&quot;color: rgb(102, 102, 102);&quot;&gt;&lt;b&gt;ПЭВМ оператора&lt;/b&gt;&lt;/font&gt;" style="sketch=0;pointerEvents=1;shadow=0;dashed=0;html=1;strokeColor=none;fillColor=#505050;labelPosition=center;verticalLabelPosition=bottom;verticalAlign=top;outlineConnect=0;align=center;shape=mxgraph.office.devices.workstation;" vertex="1" parent="1">
          <mxGeometry x="110" y="158" width="53" height="56" as="geometry" />
        </mxCell>
        <mxCell id="eGPt4R98PZ8NtImoCrRv-35" style="edgeStyle=orthogonalEdgeStyle;rounded=0;orthogonalLoop=1;jettySize=auto;html=1;fontColor=#666666;strokeColor=#666666;strokeWidth=2;" edge="1" parent="1" source="eGPt4R98PZ8NtImoCrRv-29" target="eGPt4R98PZ8NtImoCrRv-39">
          <mxGeometry relative="1" as="geometry">
            <mxPoint x="447.9999999999998" y="210.0344827586207" as="targetPoint" />
            <Array as="points">
              <mxPoint x="560" y="210" />
              <mxPoint x="560" y="210" />
            </Array>
          </mxGeometry>
        </mxCell>
        <mxCell id="eGPt4R98PZ8NtImoCrRv-29" value="Автономное&#xa;плавсредство" style="shape=image;verticalLabelPosition=bottom;verticalAlign=top;imageAspect=0;image=data:image/png,iVBORw0KGgoAAAANSUhEUgAAAgAAAAIACAYAAAD0eNT6AAAABHNCSVQICAgIfAhkiAAAAAlwSFlzAAAOxAAADsQBlSsOGwAAABl0RVh0U29mdHdhcmUAd3d3Lmlua3NjYXBlLm9yZ5vuPBoAACAASURBVHic7N13nBT1/cfx1+71o9xRjqODCCgCKmAXe8eosRdssUSjaf5MookpxlRbNCb2XrF3xd7oCGKQ3tsBx91xvW2b3x8DCeIBtzOz+53dfT8fj41J3O933tf2+5mZ73y/ICIiIiIiIiIiIiIiaSjLdADZqWxgCDAU6AjUAjGjiURERCRh+gD3A1WAtc2rGngEGGAumoiIiCTC94A6vj3wb/9qBM4yFVBERES8dRjQys4H/62vKHCKmZgiIiLilUKgjPYN/ltfFUCRibAiIiLijZ8Q3+C/9fVrE2FFRETEG5/grACYaSKsiIiIeGMDzgqAehNhRURExBvNOCsALCDXQF4REUlhQdMB5L8ChtqKiEgGUgEgIiKSgVQAiIiIZCAVACIiIhlIBYCIiEgGUgEgIiKSgbJNBxARkbTTCzgfOBF799IgsBKYCDyBvbOpiGzRgvN1APIM5BUR2VYAOA54GQix48+rKuAiQxlFfEkFgIikohLgV8BS4vvc+qWJsCJ+pAJARFJFADgSmIDzz67olj7EEM0BSKwAMAY4FujDzpfsdfOzuBf7j6ktYWA98DHwJRBzcRwRyWxdgUuAHwJ7uuwrCNwO7O82lIjfHADMwPlZfSJeXwFjE/lFi0haOhR4Cnd7luzoNSyJX4dIwp2Lu0v6iXyFgEsT9pWLSLooAn4MfENiP5MuT9YXJJJoB+LfwX/rK4zuvYlI2w4AHgUaSc7n0Y3J+bJEEisAzMT8AN+e1zwgKzHfBhFJMZ2Aq7BvEyb7s+iqJHx90gZNAvTW/qTOhJbhwBHAJ6aDpJHBwCnASOwJUrnYkzPXAouBj4DJ2FdgRPxgFPYAfAF2EWDCfwwdV8RTv8H8mX08r78l5tuQUYLA2cAs2vc93wT8EehuIqwIUAhchj8mKa9ES9JLmrgP839Q8byeScy3IWPsRfsH/u1flWg1NEmuEcC/gBrMf/ZsfV2Y0K9YJIn+ifk/qHhejyXm25ARzgOacP8zeAjdipPEyccuNCdj/vNGnz+S1n6K+T+qeF6/Scy3Ie39AIjg3c/hTXa+SJRIvPYE/oG97r7pz5ntX1HgDjQJWdLMIOyV9kz/gbX3NTIx34a0djg73+jE6et1ICeJX4eknzzsK1Of4s/PoRD2RkH7JuobIGLaC5j/Q2vP651EfQPSWGfsZZUT9TN5Bd0OkPgNBm7FnmBq+nOlrdcq4LfYWwSLpLXeQBnm/+h29qoABibo609nt5L4n80L6NKo7FoOcCbwAf48249g39o6Gc3ylwwzAvvxFtN/hG291mFvUCTxKcabSX/teT2LigBp2wDgzyT2SpTbz5c/Av0S9Q0QSQVdsCe6+OWRmzrspxT0/Lkz15Dcn9eT6MxJbFnAqdi37aKY/yzZ/hUF3gW+j25hpZSA6QAZIBfYD7ty39lKW/fi/I/nWuxLbm1pBFZjbwXc6rB/sT/gTkryMR/F3nZVWzhnpj7AFVtefQ1nactG7Ef5HsG+4ikiDrnZQCjPQN5MEgSqMXN29QAq1DNJELvQfB1vHzX16hUDPgTOQk+tiHhGBYB/lWL2Q/chVASku1LgBmA55gf5tl7VwIPYe4iIiMdUAPjXMMx/AN+V8K9Ski0AHAu8RGLWlvDqNR59xogklAoA/xqD+Q9hC7g90V+oJEUJ8EtgKeZ/p9rz0hMpIgmmAsC//FIAWNhPlkhqGoN9GT1Zj5OqABBJESoA/MtxARAIBBPxgfzHBH+94p2uwM+BhZgfyFUAiPiUCgD/clwAFBSXWCVDRiXiQ/l3Cf6axZ2tZ/uNmB/AVQBIm7Rog0iC9dhzfyzLonLZ1152ewv2Aix/9bJTcaUz9mY8P0Ib3kgKUAEgkgSlww7AikaoWjnPy27/gr24051edipx2x+4Cnvw72A4S1u+BvZBj5LKdlQAiCRJzxGHYFkWm1fN97Lbrfuq3+Zlp7JL+cA5wM+A0YaztKUFeAt7DYmPsBcV0qV8+RYVACJJ1GvkoYDF5lULvOz279j3mu/1slNp0zDgEuwlmrsYztKWxcDj2MvzVhnOIj6nAkAkyXqNHItlWVSvXuhVlwHgX9jLtN7vVafyX/nAKdiD/rGGs7SlFXvr3YeAj7En7onskgoAEQN6jxyLFY1Qs26pV10GsK8AxLBnn4t7ewA/wN6Mp5vhLG1Zir1h1GNAheEskoJUAIiYEAjQe98jAbwuAu4DmoGnvOo0w+Rhb737Q+AY/DdxLgS8gc72xQMqAEQMCWwpAizLorZsmVfdBrHPCGPAM151mgGGAJdveXU3nKUt67DP9u8DNhnOImlCBYCIQYFAgD6jjgLLonb9cq+6zQKewF4nYIJXnaahXOA0/Hu2HwU+xT7bf3XL/xbxjAoAEcO2FgGxWIT6jau96jYLeBr7SsALXnWaJvpi39f/EdDDcJa2rMf+2d0HrDGcRdJY0HQAEYFAMEi/McfSsUd/L7vNwp4L8D0vO01ROcAZwAfAauAP+Gvwj2I/t/89oB9wIxr8JcFUAIj4RCCYRf/9j6dTqadFQC7wInCol52mkN7ADcAy4BXgOPz1ubcBuBUYjD358B3sqzYiCadbAPErxH+b73TBfhbYS63Y25ZKEgWCQfqOOZY1M9+nsbLMq24LgNexV6xb61WnPpYFnIy9PO+J+GvAB3uA/wD7cc23sVfpE0k6FQA7dxAwDvvsaU/sswk/2pCgfq0tfS8GpgLvAtPQo0cJFczKpv8BJ7BmxkQaqzz70XYHngWOIn0nk/XBnsV/JfZ9fr8px35C42FgpeEsIr6b9eoHAeBM7D3X9zKcxY+WADcDz5M5hcAYYJaThoVdStlt7GmODhqLhFk9YyJNmzc6ar8D1wP/8LJDw4LACdhn+yfjv5MaC/gE+2z/dSBsKIebvQCySd+iMaP57dKYaftjn+G+hAb/HRkKPAd8CRxiOIvvBYJBsvMKHLUNZucw4MCTKOxS6mWkPwA9vezQkJ7Ab4Dl2FemTsNfg38l9kZNe2AvH/wS5gZ/kTapAPifi4AvgANNB0kRY7CfUb7SdBC/yyvsTI6LIqD/gSdRUOzZhPXO2ANnKgrwv8F0DfZ2yANNBmrDF8B47FsQv8RerlfEl1QA2G7Bflwq33SQFJOLvUiJ9qPfhdzCzmTlOvv1ysrJZcBB48gv8myBusuBEq86S4IS7MF0MfAhcBb2Y31+UQ38E/uq4RHYV8i8npQr4jkVAPYqYL8zHSLF/d+Wl+xEfocisnOcFwEDDz6Z/M6e7ElTiL3Jjd9tHUzXArdhL9frJ9OAS7EnH/4c8Gx7R5FkyPQC4Ejg36ZDpInbsB+5kp3I6+imCMjbUgR09SLKBV50kgBdsAfTBcBnwPn467HbOuwV+vbBngPzJPbmSyIpJ5MLgFzszTX8dCkxlWUBj2CfXcpO2EWAszEtKzefAQedTF6nLm5j7APs7rYTD20dTMuAu4BhZuN8xyzs+S69gWuBuWbjiLiXyQXA1cAg0yHSTB/gZ6ZDpAI3RUB2XgEDDhpHdp7rWusItx24VMT/BtMpwMXYixb5RQP2M/v7YT8h9AjQaDSRiIcytQAoBH5rOkSaugEoNh3C/wLkdSwiy2ERkJPfgb6jj3IbwtTywFsH0zLsW3AjDeXYkf8A12AXtD8EZpuNI5IYmVoAnEFqzYJOJUXAOaZDpIYAeR2KyMrOddS6Q/c+dCxxteDdHm4ax6kj/xtMZ2I/idAhicfflWbsLZQPBvYF7se+3y+StjK1ADjddIA0p+9vOwUCAfI7dXFcBBT3G+rm8IPdNG6nrYPpeuzV8EYn4ZjxWIB926o39pMR083GEUkeP62clUyHmw6Q5g7DnhSo5UPbKb9jMS0N1UQj8S0W16Gbq+0pPHmcoA2FwLnYy/P6cWGtVuBl7IJkkuEsIsZkYgFQir0xiiROB+wV2pYbzpE6AgHyOnahpaGaWBxFQHZeAYFAEMtytINsDvYjdl4tWjMce9C/CH/OA1mCvXDVE0CV2Sgi5mViAeDqpmluXh55Dpd19QPrv/+xc6FQC6HWFjeH6ocKgLgEAgHyOxTTXFeJZbVzn6VAgEBWFlbE8RbyubgrAPKxV+a7Chjrop9ECWFvwvMg9tLVmbKBlcguZWIB0NFpw/67DeGxl78gLz91VwxuaY4Qiez6MzAcDnHd5SexfMk3Tg/VyWnDTBYIBskt7ExrY63pKLuyB/akvksAT5Yn9NgK7Ef4HsfehldEtpOJBYDjr7mktHdKD/4ABAK05yQoJyeXHr36uikAMvF3yxPZuflEWpqIRn23eVwu9q57PwSOwX/bicewt959CHgVzUER2Sl9SIv4UE5BR6IN1aZjbNUXuAL4EeDZtoQeWg88jb1E7xrDWURShgoAER/KysklmJVNLBoxFgE4Cvts/4wt/9tPtj3bfw0w9o0SSVUqAER8Kis710QB0Bt7Fv81QP9kH7wdNmLvGfAAsMpsFJHUpgJAxKeycvIJtzYl41BB4Gjss/3T8d/nwrZn+68DvpscIZKK/PaHLiJbZOUkZaPK3wDjsR/b9Jty7Fn8D2PP6hcRD6kAEPGxQDALK5bQyew3JrJzh2Zjn+0/BbhajEJEdkwFgIiPBQKBTFm5pgZ4EfgXMM9wFpGMoAJAxM8CfnvU3nNbz/afAZIy4UFEbCoARCTZaoEXgHuBuYaziGQsFQA+VrZ2JQu/+Yr62ho6dOrMsBGj6DcwGTu4iiTE1rP9Z4FGw1lEMp4KAB/6auYkHrzrFhbMnfWdfzdk2N5cfd3vOeDQYwwkE4lbPTAB+7n9OYaziMg2gqYDyLc9/dA/+Pllp7U5+AMsXTiXX1x1Ng/f8+ckJxOJy2zsHQJ7b/mnBn8Rn9EVAB9586UneOiff9rl+yzL4qkH76RzURfOveTaJCQTaZcW4C3sy/wfGc4iIrugKwA+Ub25gntv/11cbR686xbWr1uVmEAi7bcIez2BPsA5aPAXSQkqAHzitQmP0tTYEFebcDjEaxMeTVAikZ1qBV4CjgOGAbcCm40mEpG4qADwiemTnJ00TfviA4+TiOzUEuyz/b7obF8kpWkOgE+sX7vSUbsNZauxLItA+i8YI+a0Aq8ADwJfGM7iZ52AC4ATgQFAkdk43+JmO+clnqVwrxZYDbwHPIf9lIk4pALAJ5qanD0WHWptJRIOkZOb53EiEZZiT+h7Aqg0G8X3zsFexriH6SAJMMh0gO2MAr4P/An4KfC82TipSwWAiGwrjL3l7oPYW/BmyFYErvwMuAvQZbjkKsG+CtAb+IfhLClJBYCIAKzE3nb3MexteKV9jgTuRIO/KQHgduBr7IJV4qACQCSzvQncD3wAxAxnSUV34u7+urgXxP45jDIdJNWoABDJbBeiiVROjQRGmw4hAOwL7AP8x3SQVKLHAEVEnDnEdAD5lrGmA6QaFQA+kRV09qMIBAIEs3QFUsSAnqYDyLf0Mh0g1agA8InibiWO2hV16UZWlu7kiBiQYzqAfIt+HnFSAeATe40c46jdsJG6BSkiIvFTAeATx518lqN2x45z1k7aLYg9wUhEJK2oAPCJQ486iZGjDoyrzdC99uHYcWcmKFHGKwVuwF4G9RHDWUREPKcCwCcCgQB/vPMxSkrbN4+lS9cS/nzXkwQdTh6UHRqDvQreSuDvwO5m44iIJIZGDx8pKe3NgxM+3uWVgGEjRvPQ8x/Rq++AJCVLe8XAD4FvgFlb/nuB0UQiIgmm6eM+U1Lai3ufnsiUTyfy4Tsvs3DeV9TVbKZT52L2GD6KY8edwRHHnard/7wxBnuwvxAoNJxFRCSpVAD4UCAQYOzR4xh79DjTUdJRMXAxcBWwl+EskqFOv+pExl1ytOkYCVfdEqQ53P4LzVNe+pQPHnkrgYlkWyoAJFNsPdsfD3QwnEUyXMfiQnoOcLb2RyrJbsqiKY4CoLBIf5rJpAJA0lkn4HzgarRRiIjIt6gAkHS09Wz/AqCj4SwiIr6kAkDSRS5wEfbZ/n6Gs4iI+J4KAEkHhwNPALsZziEikjJUAEiqOw14CW0EIiISFy0EJKlsN+AZNPiLiMRNVwB8qq62mimfTmTx/K/ZXFVBcdduDN1zb8YePY7irt1Nx/OLP6JJfiIijqgA8JlYNMrTD9/Fs4/eTXNT43f+/T//diPnXnotl/7oV2RnZ/SJb0dAWyGKiDikAsBHIpEwN/30IqZ+/v4O39PS0syTD9zBvK+/5Lb7nic3Lz+JCX1lX7Rev4iIY5oD4CP/vvWmnQ7+25o9/XPuuOX6BCfytdIkHqs2iccSEUkKFQA+sXzJfF57/tG42rz3xgTm/2dWghL5Xk2C+48BHwHnACck+FgiIkmnAsAn3nrpSWKxWFxtLMvizZeeSEwg//sPEE1AvxuBW4HBwHHYjxhGEnAcERGjNAfAJ2bP+MJZu+mfe5wkZVQCXwBHedDX1rP9B4G3gLAHfYqI+JoKAJ+o2LTBUbvKTRuJxWIEgxl5Medm4AicX8naBDwOPAws9yiTiEhKyMhRw49Cra2O2kWjEaKRjD1h/QL4c5xtLOBT4DygH3AjGvxFJAPpCoCkuj8AzcCf2PnvcxXwJPAQsDgJuUREfE1XACQd/B3YG3gU+7L+Vi3AROxdAvsC16PBX0QE0BUASR8LgSu2/Pdu2PsDbMKe4CciIttRASDpqMp0ABERv9MtABERkQykAsAncnNzHbULZmWRlaULOSIiEh8VAD7RvaSno3bdupcSzMryOI2IiKQ7FQA+MerAwxy1G3PQ4R4nERGRTKACwCe+d8ZFBAIBR+1ERETipQLAJ/YYvi8nn3FhXG2OGXcG++x3SIISiYhIOlMB4CPX3XQbow9s3yX9EfsewI23/CvBiUREJF2pAPCR3Lx87nzoZS684ufk5uW1+Z6cnFzOufga7nn8TfILCpOcUERE0oWeH/OZ7OwcrrruD5w5/io+/+gtFs37iuqqCoq7dmfosH048vhT6dGzj+mYIiKS4lQA+FT3Hj0584IrTccQEZE0pVsAIiIiGUgFgIiISAZSASAiIpKBVACIiIhkIE0CFBFJsjmfz6e5ocV1P526dKS0fwn7Hj6cDp0KPEi2Y9Wbavl60gIqyqpobmhuV5umcJBIrP0rnK6cu8xpPHFABYCISJLNm76YedMXe9Zfdk42J154BON/eTodizp41i/ApnVVPP7nF5nyzpdYMcvTvsUs3QIQEUlxkXCEtx//mP8bdwsbVm3yrN+Fs5Zx3Uk3M/mtmRr805AKABGRNLFh1Sb+ePFdNNW37xL9zmxcXcGfLv0ndZsbPEgmfqQCQEQkjZQt38hL/3rbdT+P/HEC9dUa/NOZCgARkTTzzpOfEA5FHLcvX1PBjPfneJhI/EgFgIhImmluaGHhl0sdt//q83kephG/UgEgIpKGytdUxoCok1f56grN+MsAegxQRMQZX98gv+cXj11+zy8ee8Jh878Cv/YwTjLUmQ6QanQFQETEmZWmA+zCKkNtTVllOkCqUQEgIuLMR4DzmXaJVQtMddH+PSCVbgNEgQ9Mh0g1qXILIACMAo4EhgP9gS4O++rkNMTCb2ZzxTlHOW3uC7GY1e4/6/Vlq9wc6nbgJodta4C1wHzgc2A2EHMTRiQBqoAngCsM52jLv4CQi/ZrgJeBs72Jk3BPARWmQ6QavxcAxcA1wOXAIMNZaGpsYPH8r03HSBW7e9jXGuAx4N/YH7oifnETcDz2SYlfzANu9aCfXwBHAD086CuR1pF68xV8wa+3ALKAn2DfY/sLPhj8xaj+wM3Yvw+/wP+Fq2SOTcA4YLXpIFssAL6HNxMU1wAnAxs96CtR1mJ//8tNB0lFfiwAOgNvAPdgXwEQ2aoT9q2F94GuhrOIbDUf2A+4H2g1lKERuA04CG+LkVnAGOBxIOxhv26FgAews31jOEvK8tuZ1CDgTez7/CI7cjQwAzgVWGg4iwhAJfbtyhuBo4CBQH4SjtsELMOeK9OUoGOsBy4Drsf+2voDeQk61q60YM/2/xQ99ueanwqArtgzT4eYDiIpYTD2LOwDgDLDWUS2qsO+gpmOqoFXTYcQ7/jlFkAO8BIa/CU+vbE/bAtMBxERSTV+KQBuxr6sKxKvMcDfTYcQEUk1figAhmDP7BZx6lpgb9MhRERSiR8KgF8DuaZDSErLAn5rOoSISCoxXQAUAecZziDp4XSgp+kQIiKpwnQBcAaawCXeyAbOMh1CRCRVmC4AjjV8fEkv+n0SEWkn0wXAaMPHl/Si3ycRkXYyWQAE0Br/4q2+JGf1NRGRlGdyJcACXMz+/8c/72f4CD355WeNrVEsK74txVetXM4vf3oFsZij3X8D2PtH+HnzEhERXzBZADg+UysqLub88Zd4mUUSoKE5QjTOAmD4yH25829/YH3ZWqeH1RUAEZF2MD0HwJFAIGA6giSQfr4iIomXkgWAiIiIuKMCQEREJAOpABAREclAKgBEREQykAoAERGRDKQCQEREJAOpABAREclAKgBEREQykAoAERGRDKQCQEREJAOpABAREclAJjcD8o1IJEJlZQUAJSU9yMrKMpzofxobG6isrKBbt+507NjJdJz/ikajVFZWYMVidOteQk5OjulIIiISh4y+AjBl8udcMv4shgwsZdSI3Rk1YncGD+jBpReezbSpk4zlqq+v4x+3/5WxB+3L4AE9OGjMcIYMLOWQ/Udy29//RG1NjbFsX86czuWXns/Q3Xqy7/BBjBo5mMEDejD+vO/z6ccfGsslIiLxMbntWlegyknD4i5dWLi0zPGBQ6FWfnX9T3lhwtM7fd8FF17K32+7m5zcXMfHitfsWTO5/JLzKC/f8Zb23bp156HHnuGQQw9PWq5IJMIffvsrHnvkgZ2+77TTz+Kuex6goKDQ0XbAAMccMpKydWucRt0NWOW08Q6MAWY5adihWy+Gn3yF4wM3128mFgnv9D0LJz6+y/fsRGeg3mljEUldGXcFIBaLcfWVl+xy8Ad47pknuObqH2A5GMScmPufOZx9+ridDv4AVVWVnH/2aXw5Y1pScgFc//Nrdjn4A7zx2stcdsl5RKPRJKQSERGnMm4OwFNPPMLEd95s9/vffvM1nnvmCcZf9IMEpoJwKMRVl19Ec3NTu94fCrVy1ZUXM2XGfygoKExotldfeYEXn3+m3e//7JOPePD+e7j48p8kMJWIYwOAQ4BSIM9wFpH2KAeWANOBmFedZlQBEIlEuOuOv8Xd7o7b/sJ5F1yc0MmBL734HKtWrYirzYb1ZTzz1ONcedW1CUplu/PWv8Td5p67b+fcC68kO1efr+IbBwC3AkcaziHi1HrgL8ADeFAIZNQtgJkzprJpU3nc7TZuWM/sL2ckINH/vP3Wa0lt117z581lxYplcberralh6qTPvA8k4syVwGQ0+Etq6w3cC7wBuL70m1EFwKKFC5y3XeS8bXssXDDfUbtFC+Z5nGS7/hc6ywWwZHFiv2ci7fR97DMmPasq6eJ7wBNuO8moAqB6s6OHDgCo2rJOQKJUb97sqF1dXR3hsOMZ4Lu02WEugM1VlR4mEXGkA3A/GfZZJxnhbOA0Nx1k1B+Fm7n8sZhn8y7a5OZJA8tKXDbLxddtufqOi3hiPNDTdAiRBPmFm8YZVQCISMYZZzqASAIdAhQ7bawCQETS2SDTAUQSKIj9WKvjxiIi6aqj6QAiCVbktKEKABERkQykAqCdAoHEbpvgpv9AArd0SPTXLSIiZmRUAVBc3MVx267dunuY5LuKi53N4+jYsVNCNysq7uL8e9alSzcPk4iIiJcyqgAYPHio47a7Dx7iYZLvGjxkD4ftnH9N7bG7i+/ZoN0T+z0TERHnMqoAOGTsYXQuin++RJeuXTno4LEJSPQ/J447Jant2mvfUWPo2at33O0KCgoZe/gxCUgkIiJeyKgCIDc3j2t+fF3c7X780+vJyUnsKqIXXHgJpaXxrVfSpWtXfnDZVQlKZAsGg/zsul/F3e6HV/+YDh01AVtExK8yajdAgGt+fB2TPv+UKZM/b9f7DzzoUK78YWJ32wMoLOzAPfc9wvhzv08kEtnl+4PBIHfd86CjKxrxuvjSK/jko/f58IOJ7Xr/yL335Wf/9yuiCc4lkkjjR+xOpwTOr/ELq3HXnzfbennVGqpaWx0dq2TwvmTnJ3b7cj+ItDTFtQ5qbdkyws0NCcuzIxlXAOTk5PDYk89z1ZUX8dknH+30vUcfezz3P/RUQifZbevwI47m4cef4yc/upyGhvodvq+goJC77nmAE048OSm5gsEg9z/8JD+55gomvvPmTt970MFjefSJCRQUFNLQHN8Hi4ifXDVqGP06dzAdI+Fi5S1xvX9S+SbHBUDpnvtT2DX9V2ZuqtkU1/LuTdXlRgqAjLoFsFXnoiKeff51/nXfI4wYuc93/v3Ivffl3gce4+nnXqVz585JzXbiSd/j8ymzGX/RD75zdt+pU2fOPf8iPp8ym9NOPyupuTp06MijT0zgoUefYdTo/b7zeOCwvYZz59338fLrE+naTbP/RUT8LuOuAGwVDAY565wLOOucC6io2MTqVSsBGLjbILp3LzGarXefvtxx17387ba7WbliGVVVlXTt2p1Bg3ZP2tWItgQCAU457QxOOe0MqqoqWb1qJdFolP4DBsY9f0FERMwyWQA43mYuGPT2wkVJSQ9KSnp42qcXcnJyGLrHMNMx2tStW3e6JXhtBBERSRyTtwBqAUc3kvw4WIuIiKQSkwWABcx10nD4iO/etxcREZH2Mz0J8AUnjZI9AU5ERCTdmC4A7gfWxdNgv/0P5LjjT0pQHBERkcxgugBoAs4G2vUgavfuJdz34BPaoU5ERMQl0wUAwHTgKHZxJWCv4SN4c+In9Os/IDmpRERE0phf1gGYDuwB/Ag4D9gbyM3Ly2e//Q/kzLPP4+xzx5Od7Ze4IiIiDUONZwAAIABJREFUqc1PI2oTcOeWF1/PX3l/aWnp1WYjiYiIpCc/3AJoU4/S0pDpDCIiIunKtwWAiIiIJI4KABERkQykAkBERCQD+WkSYNppbGzg048/5PPPPmbD+jI2blhPQ0Py9nwu7FBIr9596NWrN4cdfjRHH3s8nTold3tjERHxJxUACVBVVcldd/yNZ556nNbWdq1xlDALF8wH4NmnnyA3N49zz7+Q6391k7bvFRHJcLoF4LHXXn2Rg/cbwaMP32988N9eKNTK008+yiH7j2TCs0+ajiMiIgapAPDQrX+7hWuv+gH19XWmo+xUU1Mj//ezH3Hz72/EsizTcURExAAVAB558L57uPvOv6fUgPrgfffwz3/cajqGiIgYoALAA1Mmf86f/niT6RiO3Pb3P/HRh++ZjiEiIkmmAsClWCzGH357A9Fo1HQURyzL4rc3Xk84pIUXRUQyiQoAl15/9UXmz5trOoYrq1ev5PkJT5uOISIiSaQCwKWXXnzOdARPvPzSBNMRREQkiVQAuFBfX8fUyZNMx/DE7C9nUFlZYTqGiIgkiZ8KgABwOvA8sGDIwB5XHjl2DL+47hqmTvnCcLS2LV60kFCo1XQMT0Sj0ZS/lSEiIu3nlwJgEDADeBU4FxjW2NBQsHjRQp59+gnOPO1ELr7gTGqqq82m3M6m8o2mI3iqfOMG0xFERCRJ/FAADMEe/Pff2Zs+/GAi3zvpKF8VAVVVlaYjeCrdvh4REdkx0wVADvAa0L09b16+bAk/+/GViU0Uh1R99G9H0u3rERGRHTNdAFwCDI+nwQfvv8v0aZMTFEdERCQzmN4N8EInjV5+cQIHHTzW6yxJtfdR4zlq/B8873fKK7cza+LDnvcrIiLpxXQBcICTRnO++tLrHEmXV9iJLj1387zf/A7FnvcpIiLpx+QtgM5AgZOGm8rLPY4iIiKSWUxeAXB87Eg04mUOkUw2EGg0HSKBcpw23NDQhEXq7O7plNUY31omoVjM8bFCTfVk5eQ5bp8qQk11ce0MaxmagG36FoCImKXVn3bg3Nc+MR0h7Sz55HnTEWQbpp8CEBEREQNUAIiIiGQgFQAiIiIZSAWAiIhIBlIBICIikoFUAIiIiGQgFQAiIiIZSAWAiIhIBlIBICIikoFUAIiIiGQgFQAiIiIZSAWAiIhIBlIBICIikoG0G6BIBisuHUAgkDrnAZE4d6JtrFpLzOH24X1LCsjKCjhqm0qsSHxbHm+oaSUc7w9ii+69upCdm/7DTiQW3+9N7aZqwq3hBKXZsfT/SYjIDv3o33PIK+hkOka7xCxYWx3fwPPy9XtQX7HK0fFe/8sh9C8tdNQ2lYTWNcb1/hP+NpP56xocHet3T/6cQcP7O2qbStbV5RCLo6666+I/s2zWosQF2oHUKf1FRETEMyoAREREMpAKABERkQykAkBERCQDtTUJcABwETAS6AfkJvHY7dJQX88JxxzqZRZHqqoqHbddMPkVyhbP9DCNra5qveO2jz58P2+98SpFRcX0KO1JaWlPDjz4UA4/4ijy8ws8TCkiIqZtOwgXArcBP8LnVwYikQhz/zPHdAxXGmsraKytMB3jWzZuWM/GDd8uIO77910UFBRy1DHHcdHFl3P4kUcTDPr610NERNph6yd5B+BT4Fp8PvhL8jU3N/Hu229w/jmncugBe3Pfv+9ic1WV6VgiIuLC1sH+MeAAk0EkNaxatYI/3XwTo/cewk+uuYJZX84wHUlERBwIYg/8Z5sOIqmltbWFl198jlNOOorDDxnNww/eS2Ojs8VBREQk+YLANUD6r3cpCbN0ySJ+f9MvGTViML+54ToWL1poOpKIiOxCEDjMdAhJD/X1dTz+6IMcOXYMp59yPG+/+TLhcMh0LBERaUM20MN0CEk/06dNZvq0yXTrVsIZ54zn3Asvo2+/AaZjiYjIFkFAp2iSMFVVFTx8/90cf9i+XP2Dc/n8kw+IxZztJCYiIt4JArNNh5D0F4vF+Ozj97jq0rM56qDh/Puuv1FV6a91EEREMkkQeN90CMks5RvX8++7/s5RBw3nFz+9gtlfTjMdSUQk4wSBZ4Cw6SCSeUKhVt5+/SXGn3kiJx21Hw/ffzd1tTWmY4mIZIQgUA68YzqIZLaVy5dy59/+wFEHD6diU7npOCIiaW/rSoCPGk0hskVjQwOhUKvpGCIiaW9rATARWGsyiIiIiCTP1t0Ao8BTwE1OOzp2tz78dP/hnoQSgyyLSWvLmTB/OevqG02nERGRBNl2O+BHgV/jcDfAGWWbGHz8wRRkZ3kSTMwZ2aMrV4/ek2nrNvHcguW8v2Id0ZhlOpaIiHho28F+JfCZ047qQ2HeX7HOdSDxh2AgwKH9Srn3hEOYfPEp/Gz/4XQryDcdS0REPLL92f4jbjp7YcEKN83Fp3p2KODnB4xg6iWncPdxB7Ffr+6mI+3M+UCR6RAiIn63fQHwKlDptLMZZZtYXastYdNVblaQ04YO4KUzjuHj8eO4evQwivJyTcfa3l+BjdhzWkYZziIi4lvbFwCtwASnnVnASwtXugokqWFQcSduOHhvplxyCn89cj/26l5sOtK28oGLgK+AWcAPgUKjiUREfKatCX8Pu+nwxYUriGizl4zRISeb84fvzjvnnsCb5xzP+cN3J99fE0HHAA8C67f8cy+zcURE/KGtAuAb4EunHVY0tfD5mo3OE0nKGlnShb8euR8zLj2N348dRf/OHU1H2lYR9pWAecCHwNl8+ykYEZGMsqNH/lytDKjJgJmtc14OP9hnKJ9eOI5nTj2ScYP7kRUMmI61VQA4FngRWAP8HehvNJGIiAE7KgCeAxzP5vtk9XrKG5udNpc0se2jhFMuPoUbDt6bnh19dSu+F3ADsAJ4C7sw8E2lIiKSSDsqAOqBl512Go1ZvLp4ldPmkoZKOxRw9ehhfHHhydx7wiEc2q/UTyNtFvA97FsDi7GLgm5GE4mIJNjOVv1zdRvg+fkr0Npxsr2crCDjBvfjmVOP/O+jhMX5vnqUcAj2bYF12LcJDjUbR0QkMXZWAEwGFjnteE1dAzPKNjltLhlgt62PEl5sP0o4vKSL6UjbyseeKDgZuxAQEUkru1r3/zE3nb+wUJMBZdcKtzxK+PY5x//3UUKf7SkxyHQAERGv7aoAeBIIO+38veXrqG0NOW0uGei/jxL+4DT+euR+DOna2XQkEZG01J55WK8AZzg9wB8PH83FI4c4bS4ZLmZZTFlXzjPzlvHxyvVErdSaWRLMzqGgyPneCbFoBHbxNbfUVWE5/L70HLQPwaCvrrbskAWEIvG1qVk3n2ik1dHx9hzQibxsR5ujphQrHN/CbUs3NtEcijo6Vr8hvckr8NWcn4QIReOb4ly+cgOtTS1OD7eYHT+1F8Fe3v9L7FV+l2z7L9uT8iTgXafJhpd04e1zjnfaXOS/NjY08dz8FbywYAWbmvSYqYhIHGLYk/uvAxqhfQVAFvZWwf2cHvXNc45npL8meEkKi8RifLCijGfnL2faunI9bSIi0n6zsNc8qW3PtT8L6AIc4fRoWYEARw/s7bS5yLcEAwGGdC3izD0H8r0h/ckKBllRU0drVHtQiIjsQm9gKPBie29UDASWs+tJg23qlJvDjB+c5reZ3ZJGWqNRPl65nsfnLmHWBsc7WouIZIoj2zsi1wCH4fBxqFA0xu5dOjHMX1vGShrJDgYZ0rWIc4YN4pjd+gCwoqaesHamFBFpS1yn5CHgLKdHqm4Jcfaw3Zw2F2m30g4FHDOwNxeOGEz3wnzW1jVS06LHUUVEttE5nmcV8oAyHK6RHgA+Hj+O3Yo7OWku4pgFTF1bzrPzl/HByjKiMU0bFJGM1xLPFYAo9u5pBzk9WkFONmP7lTptLuJIAOhf1JGTB/fn3L0G0TE3h1U19TSE43yoXEQkfdTFuyHbCOAbp0crKcxn6iWnkB1M/8U1xN8iMYuPVpXxzLxlTF2rRwlFJON8Ee+0/E3YCwP1dXK0pnCEESVd2b2LlncVs4KBAIO7dOaMPQZy6tAB5GQFWVFTT0vE2QpnIiIp5h9On8s71ekRmyIRThs6wGlzEc91yc/j8P49uXTvoQws7simpmbKG7XSoIikrTLgsnhvAQB0AtYDHZ0cNSsQYPIlp9CzQ4GT5iJJ8U1FNc/OW8abS1bTrKsCIpI+QsCJwKdOrgCEgMHAKCdHtoDivFwO6F3ipLlIUpR2KODY3fpw8d5DGFDUkYZwhPUNTZorICKprBU4D3gP2rcXQFsOAaY4TdC/c0c+u+hkxwcXMaGquYWZ6yuYXlbB/IpqVtbWs7nZ2U5zIiJJ1gh8H/ho6//hZgyeD+zltPGzpx3JIX31SKCktqZwhKrmVprCEUJadVAks1kW1Efi3mJ5Wy+uWsOzy1d6GAqAauBkYNq2/2e2iw4fA+5w2vjFhStVAEjKK8zJpjDHzZ+RiKQFy8KqCWN1dD74v7Z6LRNWrPIuk60c+57/19v/CzcP5D+BfT/BkfeWr9PyrCIikvq2Dv4h54P/xHXruWHWHGKWpzONVmPv4/OdwR/AzfZ8zcA+OLwNELUsenUsZN9SRysLi4iImGdZxKpDEHY+cH9QtoGfzZxN1NvBfxFwNLDD+wlul+R7xE3jFxaucHl4ERERQywLy+Xg/8mGjfx0xiwi3s4hmgscDqzd2ZvcFgAfAmucNl5YWcPcTZtdRhAREUkyC2LVYSwXg/+k8k1cO+1Lr7ctn4N95l+xqze6uQUAWx7rB4502kFWMMDRA3u7jCEiIpIkFlsu+zsfuL/eXM0VU2bQEvV0obGvgOOBqva82YtdeR7F3inQkTeWrNFKayIikhossKpbXQ3+i2vruHzydJoinu5IOhs4jnYO/uBNAbCWbRYWiFdDKMy7y3Z6m0JERMQ8C6yakKvL/msaGrl00jRqQp4+BTcV+7J/XPfUvdqX91E3jTUZUERE/C5WG3L1qF95cwsXT5rKppYWD1MxGfs5/7p4G3pVALxBOyYc7Mis9RWsqKn3KIqIiIi3rNowtDof/GtCIS6ZNJW1jU0epmIS9uDvaAB1OwlwqyjQEzjYaQcFOVmM7dfTozgiIiLesOrCWC3O56q1RKNcNnk682pqPUzFdOAkoMFpB15dAQB42E3jVxat8vo5SBEREVesujBWs/PBP2pZXDdzNrOrPH3k/WtgHA7P/LfysgBYxHYbDcSjsqmFj1et9zCOiIiIc1ZDxNXgD/Cnr7/hg7INHiUC7EV+jsXe4McVr24BbOtUpw2bwlFOGzrAyywiIuKR+lCYlkiU1mh8r9ysIIFAam0AbzVGsBrdPab3zwWLeHjJMo8SAbAYe/B3POduW17/RDoAG4BOThoHAwEmXfQ9encq9DaViIjErbolxJNzl/D+ijJW1NQRijq7TZsVCNCrYyFHDujFpXsPYfcunT1O6rHmKLG6sKsuXli5mt/MbnMPHqeWAkdgj7Ge8PoKQBgYBIx20tgCivNzObB3D09DiYhIfN5bsY4L3/iUL9ZspLK5xdVGNRZQFwozd9Nmnp2/nEjM4qC+PTw/A/WCFYpiuRz8v9i4ietmzsbDrX1WYg/+nt4nT8QtgArgCqeN19U3csneQ1LucpGISLp4c+kafvL+VFodnvHvjGXBzPUVbG5u5Si/LQMfjmHVRHAzci+rq+eyydO9XOK3AjiGnezq51QiCoB1wBlAqZPGda1hDuhVQv+ijt6mEhGRXVpb18glb31OJObp1rTfMXfTZoZ0LWJo16KEHqfdohax6rBdoThU0dLK+M+nUNna6lWqOuzlfed51eG2vHwKYFtPuGmslQFFRMz416z5tCRpf5bbp8/18jK5czGL2OYQuCh6WqJRfjR1BmVNni300wycgr3BT0IkqgB4CnBcAr23Yh3VLZ5VUCIi0g7haIz3lq9L2vFW1zYwz/SW8JaFVRN2NfhbwI2zvmbOZtdP5m0VBS4EvvCqw7YkqgCoAl532jgcjfH64tUexhERkV1ZU9dAfcjdBLh4zavwbNB0xKoJY7nY2Q/gznkLeGutZ4WTBVwGvOpVhzuSqAIAtEGQiEhKqW1N7uAPUNPq6a54cbHqw6429wF4e20ZDyxa6lEiAK7HvoqecIksAD4CljttvLiqlv+UG740JCKSQbrm5xo4Zl7SjwlAYwSryd1chwU1tdw4a46X8xjuAO7yrrudS2QBYOGyitFVABGR5OlX1JGuBckdkEf17JbU4wFYrTFiDe5W+atsaeWHU2fQ7N3jfi8DN3jVWXsksgAAeAx7MoMjbyxZTVPY3Q9JRETaJysQ4JQh/ZN2vGHdi5P/GGDEwqp1d9shEovxk+lfsqGp2aNQzAQuAZK6I16iC4B1wAdOGzeFI7yzbK2HcUREZGeuHbMXnfNyEn6cAPDrQ/ZJ+HG+JWYRqw65WugH4Pdz5jKzssqbTLAEOBnw7PnB9kp0AQAuJwO+qNsAIiJJU1KYz7+OP4ScrMQODz8/YASH9euZ0GN8iwUxl4/7ATy/YhUvrPTsKbVK7Gf9K73qMB6JWAlwe8uAKwFHS/utb2ji5MH96Zbk+1IiIplqQFFHDu5TytR1mzx/LLAwJ5ubDx/NFfvu4Wm/uxKrDYPLGf8Lamr58fRZRFysFriNZmAc4OmOQfFIRgEQA3oChzjtID87i8P6J7FSFBHJcL07FTJ+xO707lhI1LIIxyyCgQD52Vlxv4ryctmzWzEXDN+dO485kAP7JHfDN6sxAs3uJuvVhEJc+MVUNnvz2GIMOB8Xt8i9kKwdd/YAFjo9Xpf8PKZfeiq5Cb4kJSIi6cUKxbCq3Q3aMcviiikz+HxjuUep+B3wZ686cypZI+piYKrTxtUtrXy8ytNdEEVEJN1Ftyzz69I9Cxd7Ofi/CvzFq87cSOYptSYDiohIklj2fX+X9+tnVFRy38IlHmXia+BiXD+H4I1kFgAvYm9t6MgXazZSVt/oYRwREUlXVl0EXK7xX9Xays9nzCbqzaS/cuBUwDcDWTILgEbgeaeNY5bFK4tWeZdGRETSktUUwXI56S9mWVw/8ys2tbR4ESkMnAv4amGbZM+qc3Ub4PkFK7yqxEREJA1ZYQvL5TK/AA8uXsak8k0eJALgWuBzrzrzSrILgJnAXKeNNzQ0MXWdZxMxREQkncTAqnG/0t9XVZu5a/5CbzLBvcDDXnXmpWSsA7C9XOAkp41D0RjjBvfzMI6IiKQDqzYMEXf3/evDYS7+Yhq1YU8WQJqJ/by/ZzsGecnEg/XPAI5vqnywsozNza0exhERkZTXHMFqdT/O3jxnLmVNnizLXw2cB/h2wDJRAGwGXnPaOByN8dqSVd6lERGR1BaxiNW7v+//ftkGXl+zzoNAxIDxwEovOksUU0vruZoMOGG+1gQQERHAsoh5cN+/vLmF38z2bFn+vwATveosUUwVAJ8Ay502Xl5dx5yNnm3FKCIiKcqqj0DU3ehvAb+e/TU1IU/W+f8U+KMXHSVasvYCaMtNuFgL+eA+PThcGwSJiGSusOXJff/VDY1ebfFbBowGPHt+MJFMFgB9gNWYeRJBRETES1HgKGCS6SDtZXJ7vTLgPYPHFxER8crfSKHBH8yffTdjL48oIiKSqmZjb/LjbhGCJDN5CwAgG1gD9DKcQ0RExIlGYAz2tvcpxeQtAIAI8LThDCIiIk79jBQc/MH8FQCAocAi/JFFRESkvV4DzjAdwim/DLpfAIeZDiEiItJOZcA+QMouSmN6EuBWUeB00yFERETawQLOAuaZDuKGX64AFADrgWLTQURERHbhYeCHpkO45ZcrABFgALC/6SAiIiI7UQZ8Hx/v8tdepp8C2NZjpgOIiIjswrVArekQXvBTATAL8GwrJhEREY89BbxhOoRX/HILYKtc4CTTIURERLZTgX3pv8l0EK/4ZRLgVsXY91cKTQcRERHZxlnAK6ZDeMlvBQDAs8AFThufe/5FlJT08DCOiIgkU8yyCEfcL6tvAU8/9gCtrS1uu3oZONt1IJ/JNh2gDY/iogA47viTOPmU73sYR0REkqmhJUI0Zrnu5+3XX/Ji8G8CfuE6jA/5aRLgVp8Bm5w2XrhwvndJREQkqcKRmCeDfzgc4p47/+JBIm4BVnvRkd/4sQCIAR86bbxg/jceRhERkWRq8eDSP8Azjz/ImtUr3XazFLjbgzi+5McCAOA9pw3XrF7lYQwREUmW1nCUmAdn/3W1NTzw7zs9SMSPSYMFf3bErwWA460V6+rSYn0GEZGMErOgNeJ+8Ad44N93UltT7babV4APPIjjW34tADY6bVhfX+dlDhERSYLWcBTLcl8ArC9by7NPPOS2mybgetdhfM6vBUC504YN9fVe5hARkQSLxixCHt37v/+e272Y+f9X0nTi37b8uA7AVo5LwQ2VabNQk4hI2mtsjRCJuj/7X7d2NSceMYZIJOymmzXAHoDrKsLv/HoFQEREMkA0anky+AM88K873A7+AL8nAwZ/0BUAERExqLElSiTm/vL/+rK1nHD4aMLhkJtuvgFGAVHXgVKArgCIiIgR4WjMk8Ef4N67b3U7+AP8mgwZ/EEFgIiIGNIa9mbwX7tmFW+88rzbbr4A3vEgTspQASAiIkkXjlqeLPkL8Mj9d3tx7//XXmRJJSoAREQk6VpC3lxpr6qs8OLs/xVgqgdxUooKABERSapw1CLmwaI/AM8++RAtLc1uuogCv/UkTIpRASAiIknVGvHm7L+luZkJTz/qtpsXgUUexEk5KgBERCRpIjGLqEfP/b/0/JNUb65y04UF3O5JmBSkAkBERJKmNezN2X80EuHJR+5z283bwBwP4qQkFQAiIpIUMcu7Vf8++fBd1q11vVz/373IkqpUAIiISFJ4dfYPeHHv/xMycOb/tlQAiIhIwsUsCEW8Oftfs2oF06Z87rabv3qRJZWpABARkYTzartfgGeffBjL3WOEM4GPPYqTslQAiIhIYlkQ9vDRv9defs5tN7d6kSXVZZsOkAhffP6J6QgikgTZ2dl0717CgIG7kZeXn/DjxWIx1qxZxaaNG2lpzYgdYz0RiVmerfs/e+ZU6mpr3HSxFnjTkzApLi23AxaRzFJY2IETTjyZ635xI0OG7ul5/9WbN/Pve+7klZcmUF6+0fP+Jal+C/zFdAg/UAEgImkjOzubP/31Di697Iee9fnljGlcdsl5VFZWeNanGBMC+gPlpoP4QZbpADtxs+kAIpJaYrEYH3/4HqWlPdln39Gu+5s/by5nfv8kat1dchb/eAF4ynQIv9AVABFJO3l5+Uye/jV9+/V33Ec0GuWYIw5g8aKFHiYTw8YCU0yH8As9BSAiaae1tYV7//UPV328+/YbGvzTy3/Q4P8tKgBEJC299+5brtpPfEcTxdPMvaYD+I0KABFJSxs3bqCurs5x+2XLlniYRgxrAFwvHpBu0nIdABERgNon7qCgqLOjtk0b13mcRgx6A2g0HcJvVACISFrKCgboUrGGaJWzuc4lOUGWe5xJjNHZfxt0C0BE0tIBvUrIDjp/0OnA3iUephGDKoAPTYfwIxUAIpKWzhk2yFX7M/YcSE6WPiLTwItA2HQIP9Jvt4iknf16defUoc7XAADo37kjV+yzh0eJxKAJpgP4lQoAEUkrg4o7cd+JhxIMuF/n7PqDRnLioL4epBJDVgJTTYfwKy0FLCJpIRgIcNoeA3jgpLF0LcjzrM9xg/uREwzyn02bCce829NekuJ+4GPTIfwqLZcCPrRfqZc5RMTHivNy2bNbMSfu3pfBXZw98tceVc0tvLe8jNkbK6lsaiGm1crbFrYg5s33Znl9Axubm910sS/2CoDShrQsAFZee66XOUREpD0siFW0eLaTywWfT2FGRaXT5uuwd/5TpbYDmgMgIiKesFpjng23zdEoc6o2u+niXTT475QKABER8UYo6llXsys3E3I352KiV1nSlQoAERHxhBXybpLktIoKN81DaPLfLqkAEBER16xIDKLeXXGftsnxvX+AL4B6j6KkLRUAIiLiXsi7wb8+HGZedY2bLt71Kks6UwEgIiKuWWHvLv/PqKgiarkqKFQAtIMKABERcc/D+/+zKqvcNF8FLPYmSXpTASAiIu5EYp4t/gMw193l/yle5Uh3KgBERMQVK+zd4B+zLObXuCoApnmVJd2pABAREXc8vPy/or6BhnDETRcqANpJBYCIiLhiRby7AvCNu8v/TcBcj6KkPRUAIiLinGXZcwA84vL+/5eAq8sHmUQFgIiIOObl2T/AN5ur3TTX5f84ZJsOsBMWDncrdNzQIQuobGphU2Mzm5paaA5HCMViNIcjhGMxmra7n1WUl0sgEKAoL4eivFyK8nLpVphPSWE+WQE/b9AoqaSmJcSmpmZqW0LUtoaobQ0TikZpDEeIbLfGenYwSIecbHKzsv73e5mfS4/CAorzcw19BZIS4igAopZFRUsLNaEwNaGQ/WoNAdAYiRKxYiysrXOTZrqbxpnGzwVAI9DRScPWSJT87CyP49j7gS+qrGVBVQ2Lq2pYVdPAhsYmKppaCEfdXwLLCgYo7VBA746F7N6lM4O7dGZo1yL26l5M98J8D74CSTfNkSgLK2tYsrmWZZvrWFpdS1l9E+vrG2mOeLMxS0F2Fn06daB3p0KGdi1icJfODNnye5mIvzNJLW0tAFTZ0sqi2joW19axrL6eVfUNlDU1s7G52e0CP7uyOpGdpxs/n25uAHo6aTjn8tM9OWtZurmOaWXlTF23idkbK6lsanHdp1N9OnVgVM9u7N+rO4f2LWX3Lp2NZRFzqltambK2nBnrK5hTXsWiqhqiHj5/HY+sYIBh3YoZVdqNA/v04JC+pXTR1YKME9scYvnmOqaUb+Krqmq+qtpMWVOTyUgrsNcCmAJMBhagbYHb5OcCYCkw2EnDzy48mQFF8V88CEVjTFq7kXeXrWX1i44TAAAgAElEQVTy2nI2NTU7OXxS9OpYyHG79eGUIf0Z06u7r3+Q4k5ZfSNvLl3DxGVrmV9ZQyyxZ1COBQMBRpR04aTd+3LqkAH07lRoOpIkiAV8ub6CN5eu5rMVG0wP+LtSBbwNvAJ8ALSajeMffh435gD7Omk44ftHcVCfHu16b8yymLR2I28vXcsHK9dR1xp2ckij+nbqwKlD+3Pa0AEM7VpkOo54oLqllbeXreXNJauZvaEy5U5fAsB+vUs4bcgAxg3upysDaWLp5jreWLKa15espqy+0XQcJ+qwi4GXt/wz9T7wPeTnAuAj4BgnDe845kDO3HPgTt9T0xLixYUreGbeMtbWpeQvcpuGl3Th8n2GcsqQ/mQH9ZBHqvm6vIqH5iziw5XrvzNRL1VlB4Mct1sfrh69J3v36Go6jsQpEovx+pLVPDV3Kd9UuJqh7zcbgAeBh7b894zj5wLgAeAqJw2vHLUnvzlknzb/3Zq6Bu6fvZA3lqz2bJKUH/XuVMgV++zBuXsNojDHz3M9xQI+W72BB79ayIz1FabjJNTBfXpw1eg9Obx/L19/+Ag0hSM8v2AFj3y9mA0Nvr7E71YI+/bAP4BZhrMklZ//Bq8H7nDS8LB+PXnq1CO+9f+tqWvg3lkLeHXx6rQ5s2qP4vxcLt17KFfuu4cKAR+auHwd//xyHourak1HSao9uxXz8wOGc8KgvqajyHYawxEenrOIp75ZSnVLyHScZLKAN4DfAfMMZ0kKPxcAp2L/MOLWKTeHOVecTlYgQHVLK3fO+IYXFqzMqIF/e6UdCvjFQSM5Y4+BBLXWgHHfVFTzp8lz+DLNz/h35cDeJfx27ChGlHQxHSXjxSyLlxau5M4Z31Bh8IknH4gBzwO/B5YbzpJQfh4JhmE/vuHIK2cey+KqGm6f/g3VLZr0udWIki78duwoDuxdYjpKRipvbOafX87nxQUrEv08dMoIACcN7sdvDtmHPp06mI6Tkb4ur+KWSXOYU15lOoqfhIH7gZuABsNZEsLPBUA2sBno5KRxYU72d1bgk/85fY+B/G7sKM3OTpKYZfHMvGXcOm2ufi93oENONr86eG8uHDFYV6mSpLqllVsmzeH1JVo/ZydWAj/Ffmogrfj9r+w94ATTIdJV98J8bj5sNCcP7mc6SlpbUVPPDZ/MZNaGStNRUsJ+vbpz69EHMKjYUe0v7fTW0jXcPOkrNjfrCmk7vQRcC6TNfTu/r+PZH4ePAsquNYUjvLt8LQurajioTw86aJKgp6KWxQNfLeKnH0xLq0dNE219QxMvLFhBVjDA6J7ddTXAY+WNzVz30Qzunb0grZ+ESoDhwCXY8wIWGc7iCb8XABZwmekQ6W55dT0vL1rFwOKODNYSw55YU9fAle9M5uVFK3Wv34GoZTFlXTlT1pZzUN8eFOXpVpUXJi5fx2Vvf8GCSldb7mayDsC52KvUfkyKryro99I6D3sZR80MSpJzhu3G7w8brasBLry8aCU3f/EVjbrX74kOOdn84bDRnD1sN9NRUlZjOMItk77ixYUrTUdJJyuAC4AZpoM45fcCAGACcJ7pELsSCAToWtqLrj370LlrNzp37U5uXj4diooIbPNtDodD/9/eeYZHVW0N+D3TMuk9JCQh9IRepINSbYCKggVswPWKYEUQxI4NEARE7ICIIl6vIAgqKCgKSO+9QyAQSO/Tz/fjJF7ko+eUmcx5nyfPkGTYa4Us9ll77VWwl5ZSVlJMUV42+dlZ5J45RUG291wrpYSHMLlHO1rGR2utik+Rb3PwwspN/Hz4hNaq/I01KJjYpBqERcYQFhVNaGQ0JouZwKB/zsooKy3G5XBSmJtNUV4uhXnZZJ1Mx1bqPVcXt9RO4u2urYi0Bmitik+xNTOH4cvXcbzAexLZI2LjiIxLICImltDIGAKDQwgICsJs/l+kR0SkpKAAp8NOUV4Ohbk55GVlknM6A7fLa5xrJ/AqMAGpfNCn8AUH4A5godZKnEt4TCypLdtSu3FzajdqTmKd+lSrUROz5do3JltpCWfSj3Ly0H4O79zK0d3bObB1I8UF2rTeNAoCQ69rwNOtG+ktha+A1ScyeW7FBjJLtBkgZTSZqdu0pWSTjZuRktaY+Bq1CY+pXLlnftZZMtOPcHzfLo7s2s6RXds4vHMrbpc2LdTjggJ5p3trOtdI0ES+L+HyeJi2cQ8fbtmj2cTIkIgoUlu0plajZtRu3JykemlUS66JNejag7pul4usUyc4ffQwR3dv58jubRzctonM40dk1Pyq+Q14EDilpRJXiy84AAFAJhChlQJmSwBNO3ahVY+eNGnfmeT6DVSRK3o8HN2zg11r/2Tj8h/ZvX616p5v07goptzYTs/Ivgh2t5sJa3cwe/sB1Qf2JNdvQJsbe9OsUzdSr2tbqU31arCVlrB341p2rvmd9b8s5uSh/arIrUAAHmxSjzEdmmE1eXsakzYcyS9i+K/r2HE2V1W5RpOZxu2vp3WPXjRufwM10xojqHSAyMk8xa61f7B15a9sXPEzxfnq/uxI1QGD8aFyQV9wAABmAYPUFCgIAo3aXs9N9w+mzY29CQzR/gFYXJDH2p8WsmzuTA5u26ia3ECTkRc7tmBA4zo+YzBqsCc7n+G/ruNArnptfKOqJXBj/0F0uWsA1WvXU03upcg4fIDf589l+TezyTubqZrcupFhTLmxnd5F8BxEYO6uQ7y9ZpuqGf5p17Xjpvv/Rbtbbic4TLOz2t+4XS52rf2T5f+ZzdqfFuJ0qJarJwLTgdGA986TL8cX9vN2wBxAld0uNDKabnc/wE0D/kVS3VQ1RF4TR3dvZ9ncmfzx/TxKiwpVkdktpToTurUmJsiqijxvxSOKzNi2n3fX78ThVv7aTzAYaHFDD25+4N+07tETo8k7EzTdLhcbfl3Csq9msG3VCkQVWm+bDAaGt2nMkJZpGP28XDCr1Mao3zaw8rg6g+2CQsPp0rc/N9//CDUbNFFF5rVQmJvNim+/5JevZ3LqyEG1xO4B7ge2qSXwWvDm/zFmpOSK0UhdARUlNjGZe54eQ9d+D1TqLl9tbCXFLJs7k/kfTKQgR/lEwqjAAMZ3bc2NtRIVl+WNnCoqZcSK9azLOKu4LKPJRLe7H6Tfk6OJr+FbGfCZ6Uf59r1xrJw/V5Vrq1YJMUzu0Y7kMP8sGFp25CRjft+kStvziNg4+j0xmhv7D1Lt2kkORFFk6x+/8vWk19WKoDqQBgu9C3hlwwVvdQBaADPLXxUlOr46/Z4YzU33D8Zk9t1aY1tJMYtnTmfhJ1NVSRy8vV4NXuzUnLigQMVleQNuUeTLnQd5d/0uih3KJsAJBgM33HEv9z37EtVr1VVUltKcOnKQeZPfYNUP/1U8IhBkNjG8TWMGNq2PyeCtW5u8nC0t483V21h8MF1xWSERUdw19Fl6DRrmUw/+8xFFkY2//sjcia9xbO9ONURuAB4BVBF2NXjb/5Jg4HWkvsuKnvqDQsO5b/iL3PrwECwBVSekXVKYz/zpE1n02TRcTmVHeYZazIxs14T7G9et0uHXHWdzeXHlJnZlKe9YtexyE4NemUCN+g0Vl6Umx/ft4vM3RrP1j+WKy2oQE8FbnVvRogqXsbpFka92HuLd9TspUtghNVsC6PPYcO4aOoKg0KrTKEz0eFi9+DtmvzWG7FMnlRbnAMYDb+NFzYO8ade+E5gCpCgpRBAEbuhzH4NeHk9kXLySojTl5MF9fDTmSXat+1NxWU3ionilUwtaJcQoLktNskttvLdxN1/vPoxH4W5+UdUSeGTsu3Ts3VdROVqzatG3zBz7nOLJggZB4N6GtXmmTaMqF6XadDqbsau2qOKQNu3YhaHjpntNwqkS2EqKmTf5DRbPnK7GddUh4HlgvtKCrgRvcADaITVRuEFpQdVr1+PRN6bSonMPpUV5DWuWzOeTl55WpdFQx+RqjGrXlKZxUYrLUpJ8m4PZOw4wc/sBVcL9N/UfzMCXxlWp09WlsJWW8O3Ut/n+kyl43MpejVqMBvqm1eLZNo19Pnl1f04B0zbt5qdDyjeaioiNY+CL4+jS936EKhzdO5dje3fy0Zgn2bdprRri1gMjgdVqCLsYWv5m2wFjgNuVFmQ0mbhr6Ajue/Yln77nv1YKc7P5YNQw1i1dpLgsAbi5dhJPt2lEWrT25UBXQ5HDyefbDzBj237Fw6oA8Sm1GT7tc9Kua6e4LG9k36a1THlqEJnpyrenDTab+FfzVAY3q+9zcwX25eQzdcNufjlyUpVeEx163cWw8dMJjay6VygXQ/R4WPTZNL6a8IoapYMi8BMwCViptLALobYDYALuAoYjOQCKk1inPk9PmUFqy7ZqiPNqln8zmxmvjaSsuEgVea0SYhjQqA496yYTYPTehi1bM3OYt+cwSw6mq1Y7fWP/QTzy2iSswSGXf3MVpqy4iBmvjWT5N7NVkWc1GelZJ5n+jep49ZWV3e3mp0MnmLfnCBtPqdMmPCg0jH+/Ppludz+oijxv5tjenUx+ciDH9+1SS+RGJEfge6T2wqqghgMgAG2BfkhTlJJUkIkgCPQaOJSHXniLgMAgNUT6BJnpR5ny1CC1wlwARFgt3JVak35ptWgQ4x1RgdwyO0sOpTNv9xH25ag3GS0sKobH3/mIdrcoHvjyKdYtXcQHo4ZRmJutmsz6UeEMaFSH3vWSiQ70juuB3Vl5fLfvGN/vP0aBXdkk3nNp2KYjz0ydRbUaNVWT6e047Da+mvAKP8x4X5WeFuVkA98B3wCrUHi+gFIOQBTQHugO9AVqKCTngsQmJvPku5/RrFNXNcX6DB63m/kfTGTe5DdV7+meFBrMjbUT6ZRcjTYJsYRYzKrIdYsie7Ly+OvkWZYfy2BrZo7qY3qv63ozT07+jMjYaqrK9RXyss7w/rP/ZvPvy1SVaxAEWlSLpnut6nRIrEaj2EjVygiLHU42nM5iVfoZlh/N4GSRusOXjCYz/Ue8TN9hIzF4cZROS3asWcl7w/+lRqXA+WQgzcFZVf4h+5yBylq5CUgGagF1kML67YE0Gda+Jrrf8xCPjJ1EUGi4FuJ9ikM7NjPlqUGq93KvwCgINIyJoHFcFA1jIkiLjiAlPITYSiZrlTpdpBcWczC3kD3Z+ezJzmNrZo4q9/oXwmINZNBL47n14SF+k1B1rYiiyM9zPmH2m2Owl5VqokOw2USL+BgaxUbQMCaS+lFh1AgLIaiSI7KzSm0cLyhmX04+e7Lz2XU2lz3Z+ao7ohUk1U3l2WmzqdO0pSbyfYnigjw+fuEpVi36Vks1DiMlDW4u//Nh4BiVKCu82G7UAmgJxAOhQCBgBcIBCxCNdKpPQoUufVdCRGwcw8Z/SNubb9NMB6MgYETEIEh/rvjXNQqilLwjCn/HczyiNO7SLYJblD7XAntZKbPfHMPPcz5B1GgjOp9Ak5HksBAirRYirQFEBgYQYjFjFARMBgGL0UCpU7qrL3Y4KXY4ybXZyS2zc7q4jJwym8Y/wf+o07Qlz06brVlbaQHJFg2CKNmnIGUeCYAgSL9vURT+/ppkiyJuUcAtiqoPOKog4/ABJj85kEM7Nmukwf8nOtBKQkggUYEBRFoDCLWY/45gBZqMOD0eXB4RtyhS7HCSV2Ynz2Ynz+bgRGGxqr35L4UgCNz60BAGvjROs+tRaY+UPgQEKgIuBgBBLLfF8i+KUgTPI4IbQTOHCeDPhd/w8QtPU1Ko3rXhZfAAJ5EcgWKgBCgEbOWfFwGngS1coC3x+Q7AHcA4QJ1xdzLR/tY+DB0/nfDoyo0+vRIMAgQYBCwGsBgEzAKYDCJGBCpzuBMBpwdcoojDA06PiEMEhxtVNuHNvy3l/RGPkpd1RgVpVR+D0UjfYSPpP+JljCblrznMBskuzQawCGASBMkuKxlxcIsiLo8g2aUo2ajdI+JU4UrU7XIy7903mP/hJMXLBf2FyNhqPDn5M67rerPisgTAYpTs0VJumyZBeq2MVYoiuJHs0imCwyPtmXaPqMpBKivjBFOfGcyutcr3WJGZPUg9CBZXfOHc38NEpLpEnyE4LIJH35xCl7sGKCbDKAgEGUWsRgFruRGriSiCQwSbW6TMDWVu5U5lBTlZfDBqKOuXLb78m3UuSrUaNXlm6iwatumomIwAAwQaBaxG6cFvVPlmwS1KG66t3CbtCjoEezf+xZSnB3Em/ZhyQvyAdrfczrAJHyp2UBKQbDLQCFajgEWgUoeia8HpAZtHLN8vJcdVCUSPh4WfTOWrd15VvOOqAryDNGPnbwdgFFIzHp+hdY+eDB03negE+YfSmAQINQkEm6STvjchIm24JS4odinjDCz/ZjazXh/tTWEun0AQBG7sP5hBL49XpKmP1QihJgNBxsqf7OXGLYqUugWKXB5sChzWS4sK+fyN5/l13iyvuaryFULCIxn86jt0v+ch2dcWgBCTQLBRevh7mVli90CpS6TIhSLOwNE9O5j27L85ssurh/5diJHAuwJQE9gH+MQIvIoOVV37PSDrugIQZBIIM0mG7AuISMZd6JKcAjnJyzrDpy8+zV8/fS/rulWVajVq8viEj2h2fTdZ1zUJAsFmCDOqH326VlyiSIkTCt3yXxXsWb+a6aOGknH4gLwLV1GUOigFGCDMZCDYXH5v7+WISM5AkctDiVPe2jq3y8VPX3zMl+Nf1ixx9RqwAWkCUjjgOY2VuSyCINDjvoEMfGkcIeGRsq1rEgQiLAIhJt8w5Ivh9ECBU6RI5qjAmiXz+fTlZ8jPUn78rS9iMBrpPfhxHhg1VtaEKqtRINIsvfqGO/r/EZGurvKc0qtc2MtK+XrSWH6Y8b6eG3ARImLjePSNqbLOlhCAULNAuMl3nNEL4QGKXZDvEGWNCmQcPsD05x5jz4Y1sq2pMBMEpBGFjbXW5FKktWrP4FcmyNrNz2yACLOBEKP691RK4hJFCpxQ6JTPESguyOPb98bx4+cf+eJ9l2I06dCZf706kVqNmsm2ZpBRckitPrzBXgibR9pwS2V0BI7u2cGssc+xY81K2db0dUxmC70GDeWep8fIdlASgDCzQLhZOjBVFUQRilyQ7/LgkikkIHo8rFzwNV9OeIWc0xnyLKocOwSkMgGv7Ecam5jM/c+9JutACpMgEGmR7virMm5RJN8JhS4RuZzcrIwTzH3nVVYu+Nqv72Gr16rLA6Nfl/V0FWgUiDILBFTxXiw2N+Q5RVmvrLav+o0Zr44g/cAe2db0RVr36Mm/XptEQs06sqwnCBBuEogw/69Mr6pS5BLJc8iXJ2AvK2XJ5x/y32njVWu9fg0UeaUDEFUtgTuHjqDnw0NkG94jCBBmEoi0CD4d6r9anB7IkfnktWvdn8x95zVfCnXJQlS1BO4aNpKeDw+RrbTPXxzS8ylxi+TYRVwymaXb5eTnOZ+y4MNJ5GTK3jDNq2nYpiP3j3qNxu3kG6hqNQrEBEiZ/P6CiBSlypcxepqTeYpvJr/J7999pcZwoaulyKuuAJLqpXHnkOF06TtA1ql9geXGbPYjYz4fuTdckKa5LfjoXTb8+qOavbJVJ6luKnc+9qysdumvDum5KLHhupwO/lgwjwUfT+bkwX0yrep9CAYDrXv0pO+wkaS1ai/buv7qkJ6LEoem3DOnWTzzfZZ++RmlRYWyrVtJdgpoXP8vCAIN23Siz5BnaN2jJ4JBvu3QKAjEWCDYj435XEQg1yHKmh8AcPLgPr7/ZAp/LvwPDluZjCtrS4PWHegzZDhtb+otq11aDRAbYPDpRCo5cXogy+7BJqMPKXo8bFz+E99/MoU96zUduS4rlgAr1/e5lzuHDCe5vnz92iru+aMsvpt0KjclLpEsh7zNhUqLClj65QyWfP6BN+QIvKNZGWBSvTQ63daPznf2p3qturKvH2wSiLVU/bura8HugbN2j+wlWg5bGRuX/8Tv333FlpW/qj5oSA7iklO4/ra76XHfQKrXrifr2gIQZRYI96e46lVQ5IRsh0f23hZZGSdYt3QRv/33S1+s10YwGEi7rh1d+93P9bffI3uPCZMB4iwGrFU8/+RacIsi2Q7JGZAT0eNh76a1rFkyn1WLvqUgR52Rz+fgABpU7ERjgLeVlphQsw7tbr2Dzn3ukzVz+lyMAkRbBEL0U/8lEYEcu0ihzIZdQX7WWVYv+Y41i79j/5b1uF0uReTIQXxKbdrdcjs39LmPOk1aKCLDaiw/9etmeUkcImTblWkmBHBk1zb+XPgN65b+wOljh5URIgNGk4nUlm3peFs/OvXuR0RsnCJywvVT/xVR7BLJcUizW+TG6bCz5fdf+HPhN2z9Y7laDdhGUx4BAOlwMhl4Rk4J8Sm1SW3ZlkbtOtH8+h6Kz5oONArEBeB1XdK8mTK3SJZdmS5ZFZQWFbLzrz/YseZ3DmzdyJFd2zQtJ0yoWYf6LdqoYpd/h1bN3tclzZvJc4jkOZWtNDmTfoxtq5aze91qDmzdoKlDYDJbqNWoGakt29C0Y1eadOisSDfJCoyCQGyAVHaqc2W4RZEsh9R8TSk8bjcHt29i+6rf2LdpLfu3bqQ4P1duMZORrv3F83/7dyENA6p/pSsJBgNRcfHEJdckqW4qSXXTqJHakDqNWxAeo/xwngoizVL9tG7OV49HhCy7SIkS7u0FcDrsHNuzg2N7d5FxeD/pB/Zy5sQxsjNOYCuVZx660WQiqloCsUkpJNVJJbleGsn1G1K7cTNVhkaBlFAVFyDoodVrxO6BM3b5arQvR2FuNod3buPEwb2cPLiPk4f2c/bkMXLPZMp2nRUQGERsUg2qJaVQI7UhiXVSSUlrRM2GTbEEVG4M9pUSaJQe/lWppl9NCpwiuU75yqsvhSiKnD56iKN7dnDy4D7SD+7l9NFDZJ8+SUH2VV8b7EcaBrSw4gsXsgABuA5o3WfwsNFh8YkpAAbBQFBYGIHBoYRGRhESHkF4TDWi4xNUmXZ2Mczl91dVvX5aDQqdUphLywr/4vxccjJPUZSfS0lBAcUFedhKSrCVSY6By+HA5XRgDZYqV81mCwFBQYSER5Z/RBARF09kbDUMRu2MQs9BkQePCFkOUfY72KvSwe0mL+sM+WczKS7Ip7ggj+KCPOylpTjLI1m2kmJMZgsmi1QlYg0MxhocTHBYBCEREYRGRBEdX52QiCjNfg4B6Xo0TL+HqjR2N5x1yJ9HdTU47DayM05QmJdDSbld2kpLKC743xVCYWbG8YWzPpwAbAQ2c95w2UtaworTjpXFbrGzEsrLQYhJKu/Tk6nlwyHCWZsHR9Wt6lMUAYiyCITrm6ysFLmkMlbdLK8NiwBxVoPXDTfzZSqqqgoUvqqqDCFG4Y/uCZYuF/u+SUVdZMMgQIye6KcIFgESrQZynd5t2N5IgFGKRunlffITapLGzJ61ibKWC/oDoWaIsRj061GZqYioWA2QrVCCoNL4nANgLU/00++vlEMor6QINEKWXUp+0bk0kWapZapulsphEgQSrAJ5Tql5kM6lMZUn+vnKdFNfJdgktfDOsss/lVVpfMYBqKihDtMT/VQjyCiQHAg5TpEi3yvpVwWLIJX36Tko6iAI0hVLkFEg2+7B4Vv7rWoEmwRiLAL6s18dJOcUipwCOQ6Pz1xV+YQDoHdO0w6DALEWA8FGkWyFywV9CQEI0UOrmmE1QmKggVyXSIHuBfyN3v1UW0LNEGgykGWXd+CVUni1A2AUIMpsIMR8mWxFHcUJMgokBkqT3IqcaFopoDUBRog2653TtEYQINosEGwQyHF6sCvUPMgXqHBIo8z6qV9rTALEWwWKXAJ5Do9X5wZ4pQMg8L8Qll5G5T0YBenEG2Yq79bmK3EumTAKEGHWM/y9DasREo0GilwiuQ7/y1kJMEBMgIEAPULqNQhAmAlCjAbyvDih2uscgECj1JpSN2bvxWKAhEADxS6pDKaqb7h/T+7zg7novkyoSSDYCLlOqWywipslJkHaK0O8bhfXqcBQnlAdahLIdijX4vpa8RrTsRqk5B6rHr/yCQQg1AQhRoFiN+Q7RU2bYiiBIECIScrw16tOfIOKEuFIM+S7oFDjxlZKYBIEws2SU6qbpW9gMUB1qwGbRxqBLeeo4cqguQPgbyd+W1kpdpuNooICAExmE0HBIQSHhGI0af7ruGoEQTp5hRgFilxQ4NK2O5YcVPTvjzBXzbkSRQX52O02bKXS6GZrUCBWayAhYeEaayYfRkEg2gzhJihwIvsIbC0wGyDCbCDEiE88+M+3s8CgIAKs1iplZ1eL1SDlB9g8glc4Apo8cYyCQIgZwoxClc7sP7x/L5vW/MnOTRs4tG83p9KPk5eTfcH3Gk0m4hOTSEqpRcPmLWnaqi1tb+hKaHiEylpfG4IAYWYINRuwe6DI5aHEic+Uw4B0lxpikhpMVYVAlMvpZMu6NWzbsJbdWzdz/NABMtKPYysrveD7rYFBJNZIoWa9VBq3bEXzNu1p0baDTzqmFZgEgWgLRFoESlwixS7fqtUWgCCTFOYP9lKjdDmdbF3/F9s2rGXXlk2XtbPAoGASa6RQq34ajVu0onm7DjRv3U7T1t1qU+EIuEQocUKBW1Rt5sW5qNYK2IBkyGEmCDBW3Vr+0yfTmf/FTJZ+/y3HDx+q1Foms5nWnTrTZ8BD9LjtLiwBATJpqQ4eoMQFRU4Pdo93Vg6YKiIYpqrjjG5Zu5r5c2axcukSCvPzKrVWeGQUXW7tTb+HH6F5m/YyaagtTo803rXIJaLhiIFLYjVIznSwCa9tdb5l3RrmfzFTFjuLjI6hW6/b6fvQIzS5rrVMGvoOImBzixS5pGmDcvkCl2sFrKgDEGCEQIPUUc5qqNr3VccOHuCjCW+wdOF/8bjlz/SIio1j8FMjue+RxwiwBsq+vtK4RenkVeqWDF2rjdcgQIBBIMgIgSYBSxWyyZVLl/DhuLHs3bFNkfUbtbiOYdROusIAAAwpSURBVM+/wg039VRkfS1wiFDmEikrt0utIlYmQboODTRKr1562AeUt7Omrdoy7PlX6Nj9JkXW93ZEEewekRI32DxipcpbVXEADIJ0P2URwGIQsBiklr1ebMOyYbeVMXPqRGZMmYDTofyM+7iERMZMmEKP2+5UXJaSuETJsB0eaRN2eCSnQK7MbQEwCJItWgxgFqSxvGZD1espcfLYUd4c+QRrVvyiirzWnTrzyuQPqVnviqeG+wQiUnTA5ganKGL3SJ/LWeUiCNLD3mIQyvdL6aDkC0mmattZ2xu68tKk6VXOzq6WiuiAwyPtkw5RskvPFZhlpRyAVVmOr50esb8RAVGQQlFGpAe+UZDu8k0G7w1RKc2aFb/wxojHyTh+THXZN/Xpx/PjJxNbLUF12UriEkXcooC7/NUjSkM2RAEQwVN+kSCIIJTX5Ek2KWBExChIpyeT4BuJUpXB7XIxa9okPpn4NnZbmaqyA6yBPDbqRQY9OcKncwSuBFEElyhFsdyiiJtyu6z4vkeU7BMwIIAg2adRKLdLocIuRZ940J+PlnZmDQzisVEvMvCJZ6u8nV0tnr/tUtojPSK4ka5eBRHciJgNwrzrYy0DLrbGJa1xZ57zNeBVedX2fey2Mqa89gJff/oBoobFxqHhEbw48T163X3R369OFeXksaO88NhAtq7/S1M9Grdsxdsfz6ZWvVRN9dBRBt3OfJ6xTSLNr13sm/56eL9mNv+1irs6tmDuJ9M1ffiDVGbz/KMPM2bIwItWF+hULTxuN3M/mc6dHZprvikD7NqyiXs6t+Grj99XJPdFRxs8bjdffjSNPu2beY2d3X1Da+Z8MBW3y6W1OlUG3QG4Qgrychk7fCiDencn/chhrdX5B0u+nUvvVg2lTdjjS4V3OlfD3h3beODm6xn//PCLllhpga2slAljnuXerm3ZvnGd1uroVJK927fywM3X884LI1QP+V8Ku62MiS89xz1d2niFU1IV0K8ALsPpk+n89/PP+GbmxxQV5GutzmVp0LQ5A58aQfded/hktYDOPxFFkR2b1vPVx+/zy8LvvN7BMxgM3HhHXx4c+hRNW7VF8ME7b39EFEW2b1zHlx9NY/kPC7zezgRBoHvvPjw47GlatO2g29nFueQVgO4AlHPqxHGOHNhHbtZZCvPzST9yiJ2bN7B762bNQ/3XQnBIKK07dSa1STPiEqoTHhFJbHwCDZq1IDAoWGv1dM7D4/Gwf9cOMjNOkJedTX5ONof27WHz2lWcSj+utXrXRPXkFFq270S9Bo2IiI4hMiaG+MRkUhs3xWDQg49acL6d5eVkcWjvHrasXc2pE75pZ/GJybTqeAN1GzQkMjqWyJgYEpJqUL9RE93OdAfg0vz6wwI+nfQ2+3Zu11oVVQgIsNLj9rt44oXXSKpZS2t1/J6y0hLmfDCVeTM+IufsGa3VUYXouGr0//cwHhr2tO6MqkRZaQlfTJ/CvBkfkZt1Vmt1VCEmLp7+j0p2Zg0M0lodrdAdgAvhdDgY+8xQFs2bo7UqmhAUHML4z+bQ9dbbtFbFbzmVfozH772DQ/v2aK2KJtRt0IgPvllI9Ro1tValSpNx/BhP3Oe/dlavYWOmf7OQ6skpWquiBXoVwIV467kn/fbhD1BaUsyIgfexZe1qrVXxSwrz83i0b0+/3ZQBDu3dzZB+vXwit8ZXKczPY0jfW/3azg7u2cVjfXtRXFigtSpeh186AKtXLGP+nFlaq6E5ToeDF4YOwmG3a62K3/He6y9x/NBBrdXQnGMHDzDtjZe1VqPKMvX1Fys9k6QqcPTgfqa9+YrWangdfukAzJzyjqbyAwKsxMVXJ6lmLSKiojXNYM04foxfFn2nmXx/JC8nmwVffa6pDsEhoVRPTqF6cgrBIaGa6vLdnJnk5+ZoqkNVJC87iwVfeoGd1fASO/tiBgV5uZrq4G34XW/Fwvw8tqxbo7rchs1b0uvuAXTo2oPa9dP+MfqyuLCAHZs2sGLJQn6a/x/VQ1Url/5I73vuV1WmP7NmxTJcTqeqMo0mE11u6c3Nd/ajZbuOVKue9I/vZ2acYMva1Sz9/jv+WPajqk19XE4nq5cv1W1QZlavWKZ60xyjyUTXW2/jpj59vc7OnA4Ha1Yso2e//qrJ9Hb8zgHISD+uqtHVb9SEUW9Nom3nbhd9T0hYOB263UiHbjcyfOw4vvzwPWZOnahaE470w3ooWk3UbiTVs19/nnrpdRJTal70PfGJyfTs15+e/fpz4ugRpr35MksXfKuajt7WXKsqoOa/qSAI5XY29pJJnbqdeRd+dwXgdKhz3x0cEspzb03i25UbLvnwP5+Q0DCGjn6ZhWu3qzZ2Vc8BUBe1/r1r1Utl5g+/MuGzOZd8+J9Pcq3aTJw5l08X/ExK3XrKKXgOdrtNFTn+hEOlva52/TRmLPqF8Z9+cVUVHf+wszp1lVPwHOw23c7Oxe8cgLiE6orLuK7D9SxYs4WHhj19zROskmrW4oP/LOLtjz8nNDxCZg3/SXxSsqLr6/yTaolJl39TJTAYDDz8xHD+++cm2lzf5ZrXad+1B/NXbeaBx55UPE8lPlG3QbmJr+5DdrZ6C/cPeUJ5O9P3un/gdw5AfGKyYvOlAwKsDH9tHLMWL5ettvm2ex9gwZottO/aQ5b1LkS7zt0VW1vn/9PuKiJCV0v15BQ+W7iMkW+8Q4DVWun1AqyBjB43mc++X0pCUg0ZNLww7XUblJ2riTxeLdVrpDBj0S+MfOMdLAEBlV4vwBrI8+On8OmCnxW1M32v+yd+5wAA3Dv4MdnXbNu5G/PXbGXw0yNlbz8Zn5jMpwt+ZvynXxAdV03WtYOCQ7jtXj35Sk1q1Uut1InpQhhNJgY++SwL122XfW2Q7Hvhuu089Pgzss9lb9u5m2JOuT9Tu34arTt1lnXNv+1s7XbZ1wZo16U7C9dt58FKRE8vRvuuPVS7avAV/NQBGEKDps1lWat6jRTGf/oFMxYuU9y4et09gMUbdjHg0cdl8boBnnhxrOxOhc7lGT1usmztSdve0JX//L6eEa9PULS1blBwCM+9OZF5K9bKtvkHBgUz+u13ZVlL5/8jt519u3KDKnY26q1JzFuxllYdb5BlzcCgYEa9NUmWtaoSfukAmC0Wpn29oFIJTmlNmjF22qcs2biHXncPkFG7SxMaHsGYCVP5cfNeHn5iOBFR0de81oBHH+fBoU/JqJ3OlVK/URPemfHlNU9sNJpMdO/dh9k//saMRb+Q2ripzBpenAZNmzNr8XJmLV5Ot153/KOk9WoIsAYyYcaX1GvYWGYNdSpIbdyUCZ/Nkc3O6jdqIrOGF6dB0+Z8vmQFM3/4la49b79mO7MGBjFx1lzqNmgks4a+j9/OAgCpJ8C7r4xm4ddzLlsaaDKbSWvSjI7db6Z7rzto0KyFSlpeGrvNxl+//cJvP/3AhlUrr2hyXFx8dZ565Q3u6P+QChrqXIq927fy1nNPsX3jusu+NyQsnOZt2tPl1t507XkbcfHKJ7ReCWczT/Hbjz/wx89L2LZx3RX1sWjepj0vTJwmWyRO59Ls3b6VN0c+yY5N6y/7Xq+1s9MZ/PbTYsnONqyluKjwsn+nRdsOvDBxGmlNmqmgoVeiDwO6HJkZJ1i59EeOHdxPYX4+AYFWgkNCCY+MIrFGCkk165DauMk1e9Fqkn02k4O7d5GRfpzMk+kUFuTjdDqwl9mITUigRdsOtO/SQ5YEMR15EEWR3Vs3s+a3X8g8mY7L5cJssRAaHkFstQSqJ9egZr1Uatat7/XjTT0eD8cOHeDYwf1kpB8n+2wmRQX5OB0OTCYTCckpdOx2E41aXKe1qn7H5ewssUYKKXXr+4ydHT24n+OHDuh2dml0B0BHR0dHR8cP0acB6ujo6Ojo6PwT3QHQ0dHR0dHxQ3QHQEdHR0dHxw/RHQAdHR0dHR0/RHcAdHR0dHR0/BDdAdDR0dHR0fFDdAdAR0dHR0fHD9EdAB0dHR0dHT9EdwB0dHR0dHT8EN0B0NHR0dHR8UN0B0BHR0dHR8cP0R0AHR0dHR0dP0R3AHR0dHR0dPwQ3QHQ0dHR0dHxQ0yX+qYouOeAcbVayujo6Ojo6OjIhfuI1hro6Ojo6Ojo6Ojo6Ojo6Ojo6Ojo6Ojo6KjO/wHjgcfndqrsSAAAAABJRU5ErkJggg==;fontColor=#666666;fontStyle=1;align=center;fontFamily=Times New Roman;" vertex="1" parent="1">
          <mxGeometry x="680" y="164" width="50" height="50" as="geometry" />
        </mxCell>
        <mxCell id="eGPt4R98PZ8NtImoCrRv-39" value="&lt;font face=&quot;Times New Roman&quot; style=&quot;color: rgb(102, 102, 102);&quot;&gt;&lt;b&gt;Береговой&lt;/b&gt;&lt;/font&gt;&lt;div&gt;&lt;font face=&quot;Times New Roman&quot; style=&quot;color: rgb(102, 102, 102);&quot;&gt;&lt;b&gt;центр&lt;/b&gt;&lt;/font&gt;&lt;/div&gt;" style="sketch=0;pointerEvents=1;shadow=0;dashed=0;html=1;strokeColor=none;fillColor=#505050;labelPosition=center;verticalLabelPosition=bottom;verticalAlign=top;outlineConnect=0;align=center;shape=mxgraph.office.servers.server_generic;" vertex="1" parent="1">
          <mxGeometry x="400" y="162" width="27" height="52" as="geometry" />
        </mxCell>
        <mxCell id="eGPt4R98PZ8NtImoCrRv-44" value="Создание, обновление маршрутов" style="text;html=1;align=center;verticalAlign=middle;resizable=0;points=[];autosize=1;strokeColor=none;fillColor=none;fontColor=#666666;fontStyle=1" vertex="1" parent="1">
          <mxGeometry x="168" y="147" width="220" height="30" as="geometry" />
        </mxCell>
        <mxCell id="eGPt4R98PZ8NtImoCrRv-45" value="Мониторинг судна" style="text;html=1;align=center;verticalAlign=middle;resizable=0;points=[];autosize=1;strokeColor=none;fillColor=none;fontColor=#666666;fontStyle=1" vertex="1" parent="1">
          <mxGeometry x="220" y="187" width="130" height="30" as="geometry" />
        </mxCell>
        <mxCell id="eGPt4R98PZ8NtImoCrRv-46" value="Отправка управляющих сигналов" style="text;html=1;align=center;verticalAlign=middle;resizable=0;points=[];autosize=1;strokeColor=none;fillColor=none;fontColor=#666666;fontStyle=1" vertex="1" parent="1">
          <mxGeometry x="452" y="147" width="210" height="30" as="geometry" />
        </mxCell>
        <mxCell id="eGPt4R98PZ8NtImoCrRv-47" value="Отправка диагностических данных" style="text;html=1;align=center;verticalAlign=middle;resizable=0;points=[];autosize=1;strokeColor=none;fillColor=none;fontColor=#666666;fontStyle=1" vertex="1" parent="1">
          <mxGeometry x="448" y="187" width="220" height="30" as="geometry" />
        </mxCell>
      </root>
    </mxGraphModel>
  </diagram>
</mxfile>
